<?xml version="1.0" encoding="utf-8"?>
<!-- Generator: Adobe Illustrator 16.0.0, SVG Export Plug-In . SVG Version: 6.00 Build 0)  -->
<!DOCTYPE svg PUBLIC "-//W3C//DTD SVG 1.1//EN" "http://www.w3.org/Graphics/SVG/1.1/DTD/svg11.dtd">
<svg version="1.1" id="Capa_1" xmlns="http://www.w3.org/2000/svg" xmlns:xlink="http://www.w3.org/1999/xlink" x="0px" y="0px"
	 width="250px" height="250px" viewBox="0 0 250 250" enable-background="new 0 0 250 250" xml:space="preserve">
<rect x="85.696" y="40.735" fill="#28285B" width="68.428" height="68.431"/>
<g>
	<text transform="matrix(1 0 0 1 92.0781 94.5239)" fill="#FFFFFF" font-family="'DFGothic-EB-WIN-RKSJ-H'" font-size="57.913">B</text>
	<text transform="matrix(1 0 0 1 123.2319 94.2417)" fill="#FFFFFF" font-family="'DFGothic-EB-WIN-RKSJ-H'" font-size="58.0129">L</text>
</g>
<g>
	<g>
		<text transform="matrix(1 0 0 1 166.4609 165.5801)" fill="#28285B" font-family="'Humanist521BT-Light'" font-size="54.4809">L</text>
		<text transform="matrix(1 0 0 1 199.0059 165.6387)" fill="#28285B" font-family="'Humanist521BT-Light'" font-size="53.3771">O</text>
		<text transform="matrix(1 0 0 1 6.6973 165.4043)" fill="#28285B" font-family="'Humanist521BT-Light'" font-size="53.8878">B</text>
		<text transform="matrix(1 0 0 1 44.0469 165.6387)" fill="#28285B" font-family="'Humanist521BT-Light'" font-size="54.2969">R</text>
		<text transform="matrix(1 0 0 1 86.4912 165.6387)" fill="#28285B" font-family="'Humanist521BT-Light'" font-size="54.297">A</text>
		<text transform="matrix(1 0 0 1 125.9536 165.5801)" fill="#28285B" font-family="'Humanist521BT-Light'" font-size="54.4809">N</text>
		<g>
			<g>
				<line fill="#28285B" x1="175.229" y1="161.956" x2="177.809" y2="161.055"/>
				<line fill="#28285B" x1="177.809" y1="161.055" x2="180.408" y2="153.538"/>
				<line fill="#28285B" x1="180.408" y1="153.538" x2="183.809" y2="152.349"/>
				<line fill="#28285B" x1="183.809" y1="152.349" x2="185.631" y2="144.813"/>
				<line fill="#28285B" x1="185.631" y1="144.813" x2="188.317" y2="143.871"/>
				<line fill="#28285B" x1="188.317" y1="143.871" x2="191.217" y2="140.098"/>
			</g>
			<g>
				<line fill="#28285B" x1="174.222" y1="162.135" x2="175.099" y2="150.173"/>
				<line fill="#28285B" x1="175.099" y1="150.173" x2="180.434" y2="150.253"/>
				<line fill="#28285B" x1="180.434" y1="150.253" x2="184.683" y2="146.22"/>
				<line fill="#28285B" x1="184.683" y1="146.22" x2="189.44" y2="145.756"/>
				<line fill="#28285B" x1="189.44" y1="145.756" x2="192.161" y2="139.812"/>
			</g>
			<g>
				<line fill="#28285B" x1="180.41" y1="160.128" x2="188.561" y2="153.61"/>
				<line fill="#28285B" x1="188.561" y1="153.61" x2="188.553" y2="151.481"/>
				<line fill="#28285B" x1="188.553" y1="151.481" x2="192.815" y2="145.126"/>
				<line fill="#28285B" x1="192.815" y1="145.126" x2="192.208" y2="143.393"/>
				<line fill="#28285B" x1="192.208" y1="143.393" x2="195.968" y2="138.848"/>
			</g>
		</g>
	</g>
	<text transform="matrix(1 0 0 1 61.9619 198.04)" fill="#28285B" font-family="'DFGothic-EB-WIN-RKSJ-H'" font-size="20.0732">CORPORATIVO</text>
</g>
<rect x="175.11" y="155.739" opacity="0.2" fill="#28285B" width="5.312" height="7.159"/>
<rect x="181.152" y="148.58" opacity="0.2" fill="#28285B" width="5.312" height="14.318"/>
<rect x="188.038" y="135.237" opacity="0.2" fill="#28285B" width="2.869" height="27.661"/>
</svg>
